<svg width="174.05250244140626px" height="80.021240234375px" xmlns="http://www.w3.org/2000/svg" viewBox="22.97374877929687 13.9893798828125 454.05250244140626 122.021240234375" style="background: rgba(0, 0, 0, 0);" preserveAspectRatio="xMidYMid"><defs><linearGradient id="editing-gradient-gradient" x1="0" x2="1" y1="0.5" y2="0.5" gradientUnits="objectBoundingBox"><stop offset="0" stop-color="#f0f"></stop><stop offset="1" stop-color="#0ff"></stop></linearGradient></defs><g><g transform="translate(90.86499509215355, 98.9921875)"><path d="M14.34 0L0.38 0L8.51-42.24L22.59-42.24L14.34 0ZM51.07 1.28L51.07 1.28L51.07 1.28Q43.33 1.28 43.33-4.74L43.33-4.74L43.33-4.74Q43.39-6.40 43.90-9.22L43.90-9.22L45.06-15.10L45.06-15.10Q46.78-23.42 46.78-25.28L46.78-25.28L46.78-25.28Q46.78-28.99 44.61-28.99L44.61-28.99L44.61-28.99Q40.96-28.99 39.04-19.46L39.04-19.46L35.26 0L22.40 1.28L29.06-32.70L39.55-33.92L38.53-27.65L38.53-27.65Q41.54-33.92 50.75-33.92L50.75-33.92L50.75-33.92Q55.23-33.92 57.12-32.03L57.12-32.03L57.12-32.03Q59.01-30.14 59.01-25.92L59.01-25.92L59.01-25.92Q59.01-21.95 56.96-12.67L56.96-12.67L56.96-12.67Q56-8.51 56-6.94L56-6.94L56-6.94Q56-5.38 56.86-4.48L56.86-4.48L56.86-4.48Q57.73-3.58 59.01-3.46L59.01-3.46L59.01-3.46Q58.37-1.28 56.16 0L56.16 0L56.16 0Q53.95 1.28 51.07 1.28ZM95.55-26.62L95.55-26.62L95.55-26.62Q95.55-23.94 93.31-22.27L93.31-22.27L93.31-22.27Q91.07-20.61 87.42-20.61L87.42-20.61L87.42-20.61Q85.89-20.61 84.99-21.06L84.99-21.06L84.99-21.06Q85.70-22.72 85.92-24.80L85.92-24.80L85.92-24.80Q86.14-26.88 86.14-27.46L86.14-27.46L86.14-27.46Q86.14-30.14 84.29-30.14L84.29-30.14L84.29-30.14Q83.01-30.14 81.57-28.54L81.57-28.54L81.57-28.54Q80.13-26.94 78.91-24.45L78.91-24.45L78.91-24.45Q76.22-18.69 76.22-12.86L76.22-12.86L76.22-12.86Q76.22-9.66 77.44-8.22L77.44-8.22L77.44-8.22Q78.66-6.78 81.34-6.78L81.34-6.78L81.34-6.78Q85.06-6.78 88-9.86L88-9.86L88-9.86Q88.83-10.82 89.28-11.90L89.28-11.90L89.28-11.90Q91.71-10.62 91.71-7.10L91.71-7.10L91.71-7.10Q91.71-3.52 87.74-1.15L87.74-1.15L87.74-1.15Q83.65 1.28 77.12 1.28L77.12 1.28L77.12 1.28Q64.13 1.28 64.13-12.48L64.13-12.48L64.13-12.48Q64.13-22.53 69.82-28.29L69.82-28.29L69.82-28.29Q75.33-33.92 85.44-33.92L85.44-33.92L85.44-33.92Q95.55-33.92 95.55-26.62ZM112.64-3.52L112.64-3.52L112.64-3.52Q110.66 1.28 104.32 1.28L104.32 1.28L104.32 1.28Q101.06 1.28 99.01-0.96L99.01-0.96L99.01-0.96Q97.28-2.94 97.28-4.93L97.28-4.93L97.28-4.93Q97.28-10.11 99.65-20.22L99.65-20.22L102.02-32.64L115.01-33.92L111.10-13.70L111.10-13.70Q110.02-8.96 110.02-7.30L110.02-7.30L110.02-7.30Q110.02-3.65 112.64-3.52ZM103.17-41.54L103.17-41.54L103.17-41.54Q103.17-44.03 105.25-45.38L105.25-45.38L105.25-45.38Q107.33-46.72 110.34-46.72L110.34-46.72L110.34-46.72Q113.34-46.72 115.17-45.38L115.17-45.38L115.17-45.38Q116.99-44.03 116.99-41.54L116.99-41.54L116.99-41.54Q116.99-39.04 114.98-37.76L114.98-37.76L114.98-37.76Q112.96-36.48 109.95-36.48L109.95-36.48L109.95-36.48Q106.94-36.48 105.06-37.76L105.06-37.76L105.06-37.76Q103.17-39.04 103.17-41.54ZM138.24-33.92L138.24-33.92L138.24-33.92Q140.54-33.92 142.34-33.41L142.34-33.41L142.34-33.41Q142.40-33.66 142.53-34.37L142.53-34.37L142.85-36.35L142.85-36.35Q143.10-37.63 143.49-39.74L143.49-39.74L144.51-44.80L157.25-46.08L150.14-8.96L150.14-8.96Q150.08-8.58 150.08-7.94L150.08-7.94L150.08-6.91L150.08-6.91Q150.08-5.50 150.78-4.45L150.78-4.45L150.78-4.45Q151.49-3.39 152.64-3.39L152.64-3.39L152.64-3.39Q151.36-0.38 147.46 0.90L147.46 0.90L147.46 0.90Q146.11 1.28 144.22 1.28L144.22 1.28L144.22 1.28Q142.34 1.28 140.61 0.29L140.61 0.29L140.61 0.29Q138.88-0.70 138.37-2.37L138.37-2.37L138.37-2.37Q137.34-0.70 135.30 0.29L135.30 0.29L135.30 0.29Q133.25 1.28 130.27 1.28L130.27 1.28L130.27 1.28Q127.30 1.28 124.83 0.51L124.83 0.51L124.83 0.51Q122.37-0.26 120.83-1.92L120.83-1.92L120.83-1.92Q118.02-5.18 118.02-12.61L118.02-12.61L118.02-12.61Q118.02-22.21 123.65-28.03L123.65-28.03L123.65-28.03Q129.28-33.92 138.24-33.92ZM137.79-30.08L137.79-30.08L137.79-30.08Q135.42-30.08 134.14-27.52L134.14-27.52L134.14-27.52Q132.86-24.96 131.55-18.62L131.55-18.62L131.55-18.62Q130.24-12.29 130.24-6.59L130.24-6.59L130.24-6.59Q130.24-2.69 132.54-2.69L132.54-2.69L132.54-2.69Q134.59-2.69 136.03-4.74L136.03-4.74L136.03-4.74Q137.47-6.78 138.05-10.18L138.05-10.18L141.50-28.93L141.50-28.93Q140.16-30.08 137.79-30.08ZM184.00-10.82L184.00-10.82L184.00-10.82Q185.60-9.73 185.60-7.33L185.60-7.33L185.60-7.33Q185.60-4.93 184.38-3.39L184.38-3.39L184.38-3.39Q183.17-1.86 181.18-0.83L181.18-0.83L181.18-0.83Q177.09 1.28 172.67 1.28L172.67 1.28L172.67 1.28Q168.26 1.28 165.66 0.32L165.66 0.32L165.66 0.32Q163.07-0.64 161.34-2.43L161.34-2.43L161.34-2.43Q157.95-5.82 157.95-12.03L157.95-12.03L157.95-12.03Q157.95-21.70 163.20-27.58L163.20-27.58L163.20-27.58Q168.83-33.92 178.62-33.92L178.62-33.92L178.62-33.92Q184.70-33.92 187.71-31.36L187.71-31.36L187.71-31.36Q189.95-29.44 189.95-26.30L189.95-26.30L189.95-26.30Q189.95-15.04 170.50-15.04L170.50-15.04L170.50-15.04Q170.24-13.38 170.24-11.97L170.24-11.97L170.24-11.97Q170.24-9.02 171.55-7.90L171.55-7.90L171.55-7.90Q172.86-6.78 175.30-6.78L175.30-6.78L175.30-6.78Q177.73-6.78 180.32-7.90L180.32-7.90L180.32-7.90Q182.91-9.02 184.00-10.82ZM170.94-17.79L170.94-17.79L170.94-17.79Q175.49-17.79 178.11-20.61L178.11-20.61L178.11-20.61Q180.74-23.30 180.74-27.58L180.74-27.58L180.74-27.58Q180.74-29.06 180.19-29.86L180.19-29.86L180.19-29.86Q179.65-30.66 178.56-30.66L178.56-30.66L178.56-30.66Q177.47-30.66 176.54-30.24L176.54-30.24L176.54-30.24Q175.62-29.82 174.66-28.42L174.66-28.42L174.66-28.42Q172.29-25.22 170.94-17.79ZM219.20 1.28L219.20 1.28L219.20 1.28Q211.46 1.28 211.46-4.74L211.46-4.74L211.46-4.74Q211.52-6.40 212.03-9.22L212.03-9.22L213.18-15.10L213.18-15.10Q214.91-23.42 214.91-25.28L214.91-25.28L214.91-25.28Q214.91-28.99 212.74-28.99L212.74-28.99L212.74-28.99Q209.09-28.99 207.17-19.46L207.17-19.46L203.39 0L190.53 1.28L197.18-32.70L207.68-33.92L206.66-27.65L206.66-27.65Q209.66-33.92 218.88-33.92L218.88-33.92L218.88-33.92Q223.36-33.92 225.25-32.03L225.25-32.03L225.25-32.03Q227.14-30.14 227.14-25.92L227.14-25.92L227.14-25.92Q227.14-21.95 225.09-12.67L225.09-12.67L225.09-12.67Q224.13-8.51 224.13-6.94L224.13-6.94L224.13-6.94Q224.13-5.38 224.99-4.48L224.99-4.48L224.99-4.48Q225.86-3.58 227.14-3.46L227.14-3.46L227.14-3.46Q226.50-1.28 224.29 0L224.29 0L224.29 0Q222.08 1.28 219.20 1.28ZM233.28-6.40L233.28-6.40L233.28-6.40Q233.28-8.13 234.18-12.48L234.18-12.48L237.57-29.76L233.79-29.76L234.05-31.68L234.05-31.68Q241.73-33.98 249.15-39.62L249.15-39.62L252.22-39.62L250.69-32.64L255.68-32.64L255.10-29.76L250.18-29.76L246.91-12.48L246.91-12.48Q246.08-8.51 246.08-7.17L246.08-7.17L246.08-7.17Q246.08-4.10 248.77-3.46L248.77-3.46L248.77-3.46Q248.13-1.28 245.82 0L245.82 0L245.82 0Q243.52 1.28 240.26 1.28L240.26 1.28L240.26 1.28Q236.99 1.28 235.14-0.77L235.14-0.77L235.14-0.77Q233.28-2.82 233.28-6.40ZM281.02-10.82L281.02-10.82L281.02-10.82Q282.62-9.73 282.62-7.33L282.62-7.33L282.62-7.33Q282.62-4.93 281.41-3.39L281.41-3.39L281.41-3.39Q280.19-1.86 278.21-0.83L278.21-0.83L278.21-0.83Q274.11 1.28 269.70 1.28L269.70 1.28L269.70 1.28Q265.28 1.28 262.69 0.32L262.69 0.32L262.69 0.32Q260.10-0.64 258.37-2.43L258.37-2.43L258.37-2.43Q254.98-5.82 254.98-12.03L254.98-12.03L254.98-12.03Q254.98-21.70 260.22-27.58L260.22-27.58L260.22-27.58Q265.86-33.92 275.65-33.92L275.65-33.92L275.65-33.92Q281.73-33.92 284.74-31.36L284.74-31.36L284.74-31.36Q286.98-29.44 286.98-26.30L286.98-26.30L286.98-26.30Q286.98-15.04 267.52-15.04L267.52-15.04L267.52-15.04Q267.26-13.38 267.26-11.97L267.26-11.97L267.26-11.97Q267.26-9.02 268.58-7.90L268.58-7.90L268.58-7.90Q269.89-6.78 272.32-6.78L272.32-6.78L272.32-6.78Q274.75-6.78 277.34-7.90L277.34-7.90L277.34-7.90Q279.94-9.02 281.02-10.82ZM267.97-17.79L267.97-17.79L267.97-17.79Q272.51-17.79 275.14-20.61L275.14-20.61L275.14-20.61Q277.76-23.30 277.76-27.58L277.76-27.58L277.76-27.58Q277.76-29.06 277.22-29.86L277.22-29.86L277.22-29.86Q276.67-30.66 275.58-30.66L275.58-30.66L275.58-30.66Q274.50-30.66 273.57-30.24L273.57-30.24L273.57-30.24Q272.64-29.82 271.68-28.42L271.68-28.42L271.68-28.42Q269.31-25.22 267.97-17.79ZM308.29-22.46L308.29-22.46L308.29-22.46Q309.18-24.83 309.18-26.88L309.18-26.88L309.18-26.88Q309.18-30.66 306.11-30.66L306.11-30.66L306.11-30.66Q304.51-30.66 303.20-29.22L303.20-29.22L303.20-29.22Q301.89-27.78 301.89-25.98L301.89-25.98L301.89-25.98Q301.89-24.70 302.91-23.68L302.91-23.68L302.91-23.68Q304.38-22.27 308.16-19.97L308.16-19.97L308.16-19.97Q311.94-17.66 313.38-15.78L313.38-15.78L313.38-15.78Q314.82-13.89 314.82-11.30L314.82-11.30L314.82-11.30Q314.82-8.70 313.57-6.34L313.57-6.34L313.57-6.34Q312.32-3.97 310.08-2.30L310.08-2.30L310.08-2.30Q305.28 1.28 297.60 1.28L297.60 1.28L297.60 1.28Q293.44 1.28 290.24-0.90L290.24-0.90L290.24-0.90Q287.04-3.01 287.04-5.50L287.04-5.50L287.04-5.50Q287.04-8 288.86-9.47L288.86-9.47L288.86-9.47Q290.69-10.94 293.38-10.94L293.38-10.94L293.38-10.94Q296.06-10.94 297.73-9.92L297.73-9.92L297.73-9.92Q296.90-7.81 296.90-6.40L296.90-6.40L296.90-6.40Q296.90-2.18 300.48-2.18L300.48-2.18L300.48-2.18Q302.02-2.18 303.04-3.14L303.04-3.14L303.04-3.14Q304.06-4.10 304.06-5.76L304.06-5.76L304.06-5.76Q304.06-9.02 298.56-12.48L298.56-12.48L298.56-12.48Q294.08-15.42 293.06-16.58L293.06-16.58L293.06-16.58Q291.33-18.62 291.33-21.18L291.33-21.18L291.33-21.18Q291.33-23.74 292.54-26.18L292.54-26.18L292.54-26.18Q293.76-28.61 296.00-30.34L296.00-30.34L296.00-30.34Q300.67-33.92 308.80-33.92L308.80-33.92L308.80-33.92Q312.96-33.92 315.42-32.26L315.42-32.26L315.42-32.26Q317.89-30.59 317.89-27.78L317.89-27.78L317.89-27.78Q317.89-24.96 316.19-23.36L316.19-23.36L316.19-23.36Q314.50-21.76 311.42-21.76L311.42-21.76L311.42-21.76Q309.31-21.76 308.29-22.46Z" fill="url(#editing-gradient-gradient)"></path></g></g><style>text {
  font-size: 64px;
  font-family: Arial Black;
  dominant-baseline: central;
  text-anchor: middle;
}</style></svg>